<svg width="19" height="19" viewBox="0 0 19 19" fill="none" xmlns="http://www.w3.org/2000/svg">
<path d="M7 18H2C0.89 18 0 17.11 0 16V2C0 0.89 0.89 0 2 0H16C17.11 0 18 0.89 18 2V7.33C17.7 7.21 17.37 7.14 17.04 7.14C16.67 7.14 16.32 7.22 16 7.37V2H2V16H7.11L7 16.11V18ZM4 6H14V4H4V6ZM4 14H9.11L11 12.12V12H4V14ZM4 10H13.12L14 9.12V8H4V10ZM18.7 10.58L17.42 9.3C17.3172 9.19923 17.179 9.14278 17.035 9.14278C16.891 9.14278 16.7528 9.19923 16.65 9.3L15.65 10.3L17.7 12.35L18.7 11.35C18.8008 11.2472 18.8572 11.109 18.8572 10.965C18.8572 10.821 18.8008 10.6828 18.7 10.58ZM9 19H11.06L17.11 12.93L15.06 10.88L9 16.94V19Z" fill="#FFFEFE"/>
</svg>


