<svg width="21" height="28" viewBox="0 0 21 28" fill="none" xmlns="http://www.w3.org/2000/svg">
<path d="M10.5 21C11.1962 21 11.8639 20.7234 12.3562 20.2312C12.8484 19.7389 13.125 19.0712 13.125 18.375C13.125 17.6788 12.8484 17.0111 12.3562 16.5188C11.8639 16.0266 11.1962 15.75 10.5 15.75C9.80381 15.75 9.13613 16.0266 8.64385 16.5188C8.15156 17.0111 7.875 17.6788 7.875 18.375C7.875 19.0712 8.15156 19.7389 8.64385 20.2312C9.13613 20.7234 9.80381 21 10.5 21ZM18.375 9.1875C19.0712 9.1875 19.7389 9.46406 20.2312 9.95635C20.7234 10.4486 21 11.1163 21 11.8125V24.9375C21 25.6337 20.7234 26.3014 20.2312 26.7937C19.7389 27.2859 19.0712 27.5625 18.375 27.5625H2.625C1.92881 27.5625 1.26113 27.2859 0.768845 26.7937C0.276562 26.3014 0 25.6337 0 24.9375V11.8125C0 11.1163 0.276562 10.4486 0.768845 9.95635C1.26113 9.46406 1.92881 9.1875 2.625 9.1875H3.9375V6.5625C3.9375 4.82202 4.6289 3.15282 5.85961 1.92211C7.09032 0.691404 8.75952 0 10.5 0C11.3618 0 12.2152 0.169744 13.0114 0.499541C13.8076 0.829337 14.531 1.31273 15.1404 1.92211C15.7498 2.5315 16.2332 3.25494 16.563 4.05114C16.8928 4.84734 17.0625 5.7007 17.0625 6.5625V9.1875H18.375ZM10.5 2.625C9.45571 2.625 8.45419 3.03984 7.71577 3.77827C6.97734 4.51669 6.5625 5.51821 6.5625 6.5625V9.1875H14.4375V6.5625C14.4375 5.51821 14.0227 4.51669 13.2842 3.77827C12.5458 3.03984 11.5443 2.625 10.5 2.625Z" fill="#E4E8E8"/>
</svg>
