<svg width="17" height="18" viewBox="0 0 17 18" fill="none" xmlns="http://www.w3.org/2000/svg">
<path d="M5.74667 7.92V9.68H3.98667V7.92H5.74667ZM9.26667 7.92V9.68H7.50667V7.92H9.26667ZM12.7867 7.92V9.68H11.0267V7.92H12.7867ZM14.5467 1.76C15.0135 1.76 15.4611 1.94543 15.7912 2.27549C16.1212 2.60556 16.3067 3.05322 16.3067 3.52V15.84C16.3067 16.3068 16.1212 16.7544 15.7912 17.0845C15.4611 17.4146 15.0135 17.6 14.5467 17.6H2.22667C1.75989 17.6 1.31223 17.4146 0.982167 17.0845C0.652103 16.7544 0.466675 16.3068 0.466675 15.84V3.52C0.466675 3.05322 0.652103 2.60556 0.982167 2.27549C1.31223 1.94543 1.75989 1.76 2.22667 1.76H3.10667V0H4.86667V1.76H11.9067V0H13.6667V1.76H14.5467ZM14.5467 15.84V6.16H2.22667V15.84H14.5467ZM5.74667 11.44V13.2H3.98667V11.44H5.74667ZM9.26667 11.44V13.2H7.50667V11.44H9.26667ZM12.7867 11.44V13.2H11.0267V11.44H12.7867Z" fill="#F8F8F8"/>
</svg>
