<svg width="24" height="18" viewBox="0 0 24 18" fill="none" xmlns="http://www.w3.org/2000/svg">
<path d="M21.5111 0H1.95556C1.43691 0 0.939507 0.206031 0.572769 0.572769C0.206031 0.939507 0 1.43691 0 1.95556L0 15.6444C0 16.1631 0.206031 16.6605 0.572769 17.0272C0.939507 17.394 1.43691 17.6 1.95556 17.6H21.5111C22.0298 17.6 22.5272 17.394 22.8939 17.0272C23.2606 16.6605 23.4667 16.1631 23.4667 15.6444V1.95556C23.4667 1.43691 23.2606 0.939507 22.8939 0.572769C22.5272 0.206031 22.0298 0 21.5111 0ZM7.82222 2.93333C8.60019 2.93333 9.3463 3.24238 9.8964 3.79249C10.4465 4.34259 10.7556 5.0887 10.7556 5.86667C10.7556 6.64464 10.4465 7.39074 9.8964 7.94085C9.3463 8.49095 8.60019 8.8 7.82222 8.8C7.04425 8.8 6.29815 8.49095 5.74804 7.94085C5.19794 7.39074 4.88889 6.64464 4.88889 5.86667C4.88889 5.0887 5.19794 4.34259 5.74804 3.79249C6.29815 3.24238 7.04425 2.93333 7.82222 2.93333M13.6889 14.6667H1.95556V13.6889C1.95556 11.7333 5.86667 10.6578 7.82222 10.6578C9.77778 10.6578 13.6889 11.7333 13.6889 13.6889V14.6667ZM17.4533 10.7556H19.0667L20.5333 12.7111L18.5778 14.6667C17.3067 13.6889 16.3582 12.3298 15.9182 10.7556C15.7422 10.1298 15.6444 9.47467 15.6444 8.8C15.6444 8.12533 15.7422 7.47022 15.9182 6.84444C16.3582 5.26044 17.3067 3.91111 18.5778 2.93333L20.5333 4.88889L19.0667 6.84444H17.4533C17.2382 7.46044 17.1111 8.11556 17.1111 8.8C17.1111 9.48444 17.2382 10.1396 17.4533 10.7556Z" fill="#F8F8F8"/>
</svg>
